<svg id="Layer_1" data-name="Layer 1" xmlns="http://www.w3.org/2000/svg" viewBox="0 0 100.52 82.53"><defs><style>.cls-1{fill:#acacac;}.cls-2{fill:#57d4fa;}</style></defs><path class="cls-1" d="M11.5,9.62H6V17a4.89,4.89,0,0,0,.19,1.55c.12.37.57.56,1.33.56s1.27-.24,1.45-.7A5,5,0,0,0,9.2,16.7V16h2.89a3,3,0,0,1,0,.41v.37a5.7,5.7,0,0,1-1,3.75c-.66.79-1.91,1.18-3.75,1.18a6.65,6.65,0,0,1-3.68-.8c-.77-.54-1.16-1.68-1.16-3.42V9.62H.67V7H2.53V3.75H6V7H11.5Z"/><path class="cls-1" d="M18.26,9.19s0,0,0,0a.22.22,0,0,1,.05-.08,4.1,4.1,0,0,1,1.75-1.85,6.43,6.43,0,0,1,2.56-.41,5.9,5.9,0,0,1,3.9,1.08c.83.73,1.25,2,1.25,3.79v9.84H24.35v-9a4.26,4.26,0,0,0-.48-2.27c-.33-.5-1.06-.74-2.22-.74a3.29,3.29,0,0,0-2.75.93,4.65,4.65,0,0,0-.7,2.82v8.26H14.76V.8H18.2Z"/><path class="cls-1" d="M32.14,11.26c0-2,.58-3.27,1.75-3.69A13.07,13.07,0,0,1,38.19,7a12.46,12.46,0,0,1,4.87.81c1.26.54,1.9,2,1.9,4.34v9.41H41.54l.1-1.8a3.22,3.22,0,0,1-2,1.74,12.46,12.46,0,0,1-2.74.27,7.63,7.63,0,0,1-3.79-.83c-1-.56-1.49-1.72-1.49-3.48s.48-3.1,1.44-3.72a7.18,7.18,0,0,1,4-.94l.71,0,.75,0c.33,0,.65.08,1,.14a3.14,3.14,0,0,1,.87.26,1.51,1.51,0,0,1,.57.42,3.57,3.57,0,0,1,.42.54.22.22,0,0,1,.05.08.22.22,0,0,0,0,.08l.06-2.24a3,3,0,0,0-.67-2.33,3.94,3.94,0,0,0-2.44-.55h-.48l-.54,0a3.47,3.47,0,0,0-.87.22,1.36,1.36,0,0,0-.62.54,1.31,1.31,0,0,0-.12.41c0,.16-.05.3-.07.45v.42Zm3,5.72c0,1.09.24,1.76.73,2a5,5,0,0,0,2.15.35h.62a5.74,5.74,0,0,0,2-.45,1.66,1.66,0,0,0,.9-1.72V16.9a1.18,1.18,0,0,0,0-.27,2.2,2.2,0,0,0-.13-.55,1,1,0,0,0-.31-.47,1.93,1.93,0,0,0-.76-.37,7,7,0,0,0-.91-.19l-.67,0H37.6a4.19,4.19,0,0,0-.5,0,4.47,4.47,0,0,0-.8.14,1.88,1.88,0,0,0-.72.36,1.2,1.2,0,0,0-.35.51,2.21,2.21,0,0,0-.14.64V17Z"/><path class="cls-1" d="M58.33,9.62H52.81V17A5.25,5.25,0,0,0,53,18.53c.13.37.57.56,1.34.56s1.27-.24,1.44-.7A4.72,4.72,0,0,0,56,16.7V16h2.88a3,3,0,0,1,0,.41v.37a5.76,5.76,0,0,1-1,3.75c-.66.79-1.91,1.18-3.75,1.18a6.63,6.63,0,0,1-3.68-.8q-1.17-.81-1.17-3.42V9.62H47.5V7h1.86V3.75h3.45V7h5.52Z"/><path class="cls-2" d="M14.32,37.94H11a1.52,1.52,0,0,0-.6-1.38,2.82,2.82,0,0,0-1.54-.39H8.11a1.94,1.94,0,0,1-.4,0H7.34a4.9,4.9,0,0,0-1.58.23Q5,36.67,5,37.82t.45,1.47A2.9,2.9,0,0,0,7,39.68c.22,0,.46,0,.7,0h.72l.31,0h.32a13.72,13.72,0,0,1,4,.7c1.22.43,1.83,1.59,1.83,3.49,0,2.14-.62,3.46-1.85,4a11.67,11.67,0,0,1-4.61.79H7.66l-.79,0a9.92,9.92,0,0,1-3.63-.76c-1.1-.46-1.64-1.52-1.64-3.18v-.81H5.1a2.41,2.41,0,0,0,.58,1.93,3.12,3.12,0,0,0,1.94.46l1,0A5.34,5.34,0,0,0,10.72,46c.5-.2.75-.78.75-1.75,0-.75-.18-1.22-.53-1.42a3.48,3.48,0,0,0-1.52-.32H8.7l-.37,0H8a15.09,15.09,0,0,1-4.38-.64c-1.26-.4-1.89-1.69-1.89-3.86,0-2,.65-3.19,1.94-3.6a13.87,13.87,0,0,1,4.3-.63h1c.33,0,.66,0,1,0a8.44,8.44,0,0,1,3.08.8,2.74,2.74,0,0,1,1.39,2.73v.31a.66.66,0,0,1,0,.14,1,1,0,0,0,0,.17Z"/><path class="cls-2" d="M21.83,39.65h.84L26.74,34h3.94l-5.15,6.83L31.7,48.5H27.51L22.67,42h-.84V48.5H18.39V27.79h3.44Z"/><path class="cls-2" d="M42,49.4a13.07,13.07,0,0,1-1.6,4c-.67,1-2,1.55-3.93,1.55h-.71l-.36,0-.36,0V52.35l.19,0,.22,0a.57.57,0,0,0,.18,0h.19a2,2,0,0,0,1.83-.93,7,7,0,0,0,.81-2.08c0-.15.05-.3.08-.47s.05-.32.07-.46H37L32.17,34h3.6l3.69,12.32L42.29,34h3.57Z"/><path class="cls-1" d="M14.32,64.93H11a1.52,1.52,0,0,0-.6-1.38,2.82,2.82,0,0,0-1.54-.39H8.11a1.94,1.94,0,0,1-.4,0H7.34a4.9,4.9,0,0,0-1.58.23Q5,63.66,5,64.81t.45,1.47A2.9,2.9,0,0,0,7,66.67c.22,0,.46,0,.7,0h.72l.31,0h.32a13.72,13.72,0,0,1,4,.7c1.22.43,1.83,1.59,1.83,3.49,0,2.14-.62,3.46-1.85,4a11.67,11.67,0,0,1-4.61.79H7.66l-.79,0a9.92,9.92,0,0,1-3.63-.76c-1.1-.46-1.64-1.52-1.64-3.18v-.81H5.1a2.41,2.41,0,0,0,.58,1.93,3.12,3.12,0,0,0,1.94.46l1,0A5.34,5.34,0,0,0,10.72,73c.5-.2.75-.78.75-1.75,0-.75-.18-1.22-.53-1.42a3.48,3.48,0,0,0-1.52-.32H8.7l-.37,0H8a15.09,15.09,0,0,1-4.38-.64c-1.26-.4-1.89-1.69-1.89-3.86,0-2,.65-3.19,1.94-3.6a13.87,13.87,0,0,1,4.3-.63h1c.33,0,.66,0,1,0a8.44,8.44,0,0,1,3.08.8,2.74,2.74,0,0,1,1.39,2.73v.31a.66.66,0,0,1,0,.14,1,1,0,0,0,0,.17Z"/><path class="cls-1" d="M21.89,63.16s0,0,.05,0A.22.22,0,0,1,22,63a4.15,4.15,0,0,1,1.75-1.85,6.44,6.44,0,0,1,2.56-.42,5.9,5.9,0,0,1,3.9,1.09c.84.73,1.25,2,1.25,3.79v9.84H28v-9a4.26,4.26,0,0,0-.48-2.27q-.48-.75-2.22-.75a3.29,3.29,0,0,0-2.75.94,4.72,4.72,0,0,0-.7,2.82v8.26H18.39V54.78h3.44Z"/><path class="cls-1" d="M36.7,62.3c.89-1,2.65-1.46,5.28-1.46s4.61.44,5.58,1.33S49,64.92,49,67.76a15.3,15.3,0,0,1-.88,5.88c-.59,1.36-2.43,2-5.51,2q-3.85,0-5.56-1.22c-1.14-.82-1.7-2.61-1.7-5.39V67.63Q35.37,63.76,36.7,62.3ZM38.9,68v1a9.59,9.59,0,0,0,.38,3c.24.76,1.1,1.14,2.57,1.14l.41,0a3.43,3.43,0,0,0,.48,0l.54,0a5.86,5.86,0,0,0,.92-.22,1.49,1.49,0,0,0,.73-.53,2.77,2.77,0,0,0,.43-1A10.66,10.66,0,0,0,45.52,70c0-.2,0-.42,0-.63V66.94c0-.22,0-.45,0-.7A9.15,9.15,0,0,0,45.31,65a1.87,1.87,0,0,0-.48-.94,1.62,1.62,0,0,0-.67-.4,2.71,2.71,0,0,0-.82-.12l-.34,0H41.5a1.69,1.69,0,0,0-.33,0,2.65,2.65,0,0,0-.79.11,1.47,1.47,0,0,0-.64.35,1.77,1.77,0,0,0-.42.59,6.2,6.2,0,0,0-.23.69.87.87,0,0,0-.06.37c0,.2,0,.41-.06.6s0,.39,0,.58,0,.41,0,.6V68Z"/><path class="cls-1" d="M55.85,61v2a4.54,4.54,0,0,1,1.88-1.74,6.39,6.39,0,0,1,2.53-.43c2.58,0,4.19.64,4.81,1.93A12.59,12.59,0,0,1,66,68.15a15,15,0,0,1-.84,5.32q-.84,2.2-4.68,2.2a8.63,8.63,0,0,1-2.61-.35A3.61,3.61,0,0,1,56,73.56l-.06,8H52.5V61Zm.09,6.86v.93a7.18,7.18,0,0,0,.56,3.06c.37.78,1.29,1.16,2.73,1.16s2.48-.36,2.78-1.1a8.4,8.4,0,0,0,.45-3.09V67.26c0-.25,0-.51,0-.77a9.26,9.26,0,0,0-.19-1.21,2.33,2.33,0,0,0-.4-1,1.47,1.47,0,0,0-.71-.52,4,4,0,0,0-.9-.22,3.4,3.4,0,0,0-.45,0h-.64a6.31,6.31,0,0,0-2,.28c-.57.18-.93.85-1.07,2l-.06.52a2.92,2.92,0,0,0,0,.51,4.89,4.89,0,0,0,0,.54v.48Z"/></svg>